<svg id="Layer_1" data-name="Layer 1" xmlns="http://www.w3.org/2000/svg" viewBox="0 0 830 453.28"><defs><style>.cls-1{fill:#dd0031;}.cls-2{fill:#fff;}</style></defs><title>brunito</title><path class="cls-1" d="M18,424.5v-10H79.55l.55-1.41c-2.9-2.32-5.63-4.91-8.73-6.92C61.46,399.75,57,390.4,57.74,379a221,221,0,0,1,4-31.54c1.75-8.31,6.71-15.46,16-16.35,5.67-.55,8-2.92,10-7.76,6.77-16.42,25.7-29,41.52-22.16,3.09,1.33,4.56-.79,5.93-3,3.33-5.43,8.33-7,14.23-5.56A65.06,65.06,0,0,1,175.28,305c8.79,7.11,14.35,16.5,18.91,26.54,1.64,3.61,3.58,5.15,7.65,4.27,5-1.09,9.44.55,13.41,3.85,21.27,17.72,23.7,51.58,5.82,71.62a14.85,14.85,0,0,0-1.59,3h105.3c-1.49-17.5-30.84-56.09-51.25-67.24-10.89,20.46-20,42.24-38,58a3.74,3.74,0,0,1,.09-2.95c6.65-13.22,13.14-26.52,20.07-39.59,8.14-15.34,9.86-31.11,2.92-47.08-4-9.26-9.33-18-14.49-26.74-7.26-12.26-10.06-25.42-7.65-39.32,2.64-15.23,6.12-30.32,9.43-45.43,1.57-7.2,1.17-13.49-5.45-18.22-5.9-4.21-8.25-10.13-7.91-17.34.49-10.1-1.72-19.74-4.45-29.45-1.81-6.4-3.27-13.84-1.73-20,2.64-10.69-.15-18-7.94-25.13-6.7-6.12-7.66-6.77-15.14-1.6-6,4.13-11.84,8.48-18.13,12.08-2.07,1.18-6.94,1.34-7.71.15-1.57-2.44-2.61-6.84-1.4-9.13a49,49,0,0,1,10.69-14C198.45,71.18,211,62,222.76,52c12.24-10.36,25.72-18.2,41.1-22.75Q276.94,25.41,290,21.5h38c12.06,2.06,24,5.07,36.18,5.93,14.75,1.05,29.77-1,44.41.67,13.07,1.47,25.74,6.24,38.66,9.25a10.81,10.81,0,0,0,7.32-.89c8.94-5.37,18.45-7.14,28.72-6.1,6.62.66,13.29.77,19.94,1.22,17.79,1.21,35.1-1.9,52.37-5.57,7.45-1.58,14.93-3,22.4-4.51h32a17.51,17.51,0,0,0,3.19,1.11C629.72,25,645.64,29.76,659,39.69c18.81,14,36.75,29.11,54.83,44.05,3.93,3.25,6.87,7.71,10.53,11.92-10.9,3.83-20.65,4.24-30.09-.7-5-2.61-9.85-5.51-14.59-8.56-2.76-1.78-4.57-2.05-6.42,1.16a68.6,68.6,0,0,1-7,10.31c-7,8.21-9.47,17.46-8.38,28.2.67,6.57,1,13.59-.57,19.87-3.76,14.78-8.86,29.22-13.23,43.85a27.93,27.93,0,0,0-1.52,9.78c1.06,14.6,2.23,29.2,3.92,43.74,1.32,11.4,1.66,22.81-2.22,33.58-4.38,12.13-9.78,23.92-15.32,35.57-5.72,12-11.51,23.94-13,37.46-2.45,22.48,6.48,40.88,20.16,57.68.8,1,1.5,2.06,2.25,3.09l-1.26,1.19c-4.18-3.18-8.72-6-12.45-9.63-9.74-9.51-14.25-21.91-17.7-34.68-1-3.79-2.82-5.27-6.35-4-4.65,1.7-9.6,3.12-13.65,5.82-12.88,8.6-19.78,21.69-25.11,35.72-1.08,2.84-1.76,5.83-2.68,8.94a16.59,16.59,0,0,0,2.72.6q39,0,78,.06c3.25,0,3.51-1.51,3.49-4.43-.07-8.46-.58-17.1.89-25.35,3.4-19.08,14.15-33.79,29.79-45,5.43-3.9,11.31-7.16,18-3.92,4.63,2.22,6.64.48,9.11-3.17,12.47-18.4,29.78-28,52.21-27.9,6.6,0,9.89,2.26,11.81,8.5,1,3.26,2.81,3.88,5.94,3.76,3.75-.15,7.78-.28,11.26.87,15,5,21.39,17,24.34,31.4.68,3.29,1.85,5.2,5.4,6.13a19.09,19.09,0,0,1,14.21,18.87c-.39,12.6,1.67,25.36-2.16,37.77-.17.54.18,1.23.35,2.25H848v10q-46.74,0-93.49,0-114.74,0-229.47,0c-3.23,0-5.67.74-7.74,3.43C511.82,435,505.78,441.7,500.52,449c-22.26,30.73-69.92,33.4-95.23,11.31a59.47,59.47,0,0,0-9.48-7.24c-11.56-6.53-21.56-14.88-30.79-24.39-2.24-2.31-6.26-3.79-9.57-4-8.3-.56-16.66-.19-25-.18ZM366.22,41.71c-12.62-3.23-23.4-5.83-34.09-8.78-22.11-6.1-43.7-4.74-65,3.71C249,43.85,235.53,57.32,221.69,70.29c-.58.54-.62,1.66-.91,2.51,1,0,2.31.54,3,.1A86.3,86.3,0,0,0,234.18,66c25.15-20.55,54.6-25.64,85.87-23.84,8.67.5,10.88,5.12,7,12.94a24.94,24.94,0,0,1-2.22,3.32c-9.43,13.08-19.34,25.86-28.21,39.32-10.47,15.89-23.26,28.15-42.58,31.94-3.89.76-4.93,3.1-5.06,6.76-.17,5.12-1.27,10.23-1.18,15.32a7.73,7.73,0,0,0,3.6,5.58c4,2.1,7.55.36,10.3-4.26,4.26-7.13,8.33-14.39,12.68-21.47,1-1.61,2.81-2.72,4.25-4.06A42.92,42.92,0,0,1,280,133.4a8.7,8.7,0,0,1-.72,3.9c-3.4,8.64-6.9,17.24-10.33,25.86a19.42,19.42,0,0,0-.64,2.76l1.35.69c4-5.4,8.34-10.57,11.91-16.23,19.14-30.3,44-53.61,78.47-65.57,7.37-2.55,14.8-4.32,22.28-.54,11.14,5.62,18.93,25.18,14.64,37-.7,1.93-2.45,3.48-4.2,5.86-2.25-8.14-3.65-15.21-6.17-21.85-3.28-8.61-10.18-15.72-21.59-13.73-4.61.81-9,3.34-13.27,5.46-19.8,9.77-37.37,22.32-50.28,40.66-6.71,9.52-13.6,18.91-20.46,28.31-3.81,5.21-8.94,8.1-15.46,7.34-3.44-.4-4.38.91-4.75,3.94-.68,5.62-1.75,11.18-2.46,16.79a30.67,30.67,0,0,0,.3,5.64c2-.79,4.28-1.28,6.12-2.41,7.3-4.5,14.11-10,21.8-13.63,11.11-5.25,12.13-6,10.56-18.41-.22-1.82-.62-3.63-.71-5.45a12.8,12.8,0,0,1,.58-3.06l1.41-.33c1.58,3.44,3.3,6.83,4.72,10.34,3.23,8,3.13,8,10.49,3.67,3.74-2.18,7.63-4.11,12.57-6.75a45.48,45.48,0,0,1-.95,5.35c-2.62,7.64-8.31,12.26-15.5,15.18-8.79,3.57-17.61,7.06-26.49,10.36-12.52,4.64-21.89,12.49-26.44,25.35-1.1,3.08-1.76,6.32-2.63,9.49l1.82,1c3.39-3,6.88-5.89,10.16-9,11.09-10.56,24-17.31,39.43-18.32a33.35,33.35,0,0,0,22.9-10.69c3.67-3.86,7.46-7.62,10.89-11.68a77.38,77.38,0,0,1,33-23.33c15-5.49,28.68-13.21,39.74-25.05a29.57,29.57,0,0,1,3.66-2.88l1.75,1.1L406.12,154h80.45c-7.71-8.45-17.37-14.55-16.8-27.47,1.57,1.06,2.65,1.72,3.66,2.49,8.07,6.12,16,12.48,24.22,18.36,15.14,10.79,30.65,21.08,45.67,32,8,5.85,14.69,13.69,24.91,16.07q16.51,3.85,33.06,7.58c3.35.76,6.77,1.27,10.15,1.89a50.82,50.82,0,0,0-7-10c-5.54-6.67-11.83-11.86-20.89-13.41-6.81-1.17-12.68-4.67-17.25-12.6,3.11.45,5,.47,6.78,1,5.38,1.72,10.72,3.58,16,5.5,4.9,1.78,8.37.16,11-4.13,1.19-2,2.59-3.83,4.74-7,2.85,17.61,7.31,32.6,23.47,41.43,2.15-19.85-4.23-38-10.16-56.32a1.86,1.86,0,0,1,1.38,1c7.48,9.25,15.63,9.35,23.12.1.63-.78.4-3.49-.27-3.88-3.52-2.06-7.15-4.34-11-5.27a29.44,29.44,0,0,1-17-10.54q-28.53-36.24-57-72.55c-4.44-5.66-3.71-9,2.42-13,13.69-8.8,28.35-10.16,44.08-7.07C627.46,42.94,649,51.65,667,68.11a61.7,61.7,0,0,0,14.26,9.77c4.79,2.34,10.29,3.22,15.47,4.75.16-.43.32-.86.49-1.29A27,27,0,0,0,695,78.81c-21-18.74-44.15-33.7-71.58-41.18-16.32-4.45-32.6-10.12-49.82-4.06-5.8,2-11.69,3.85-17.45,6s-11.53,4.59-18.24,7.29c2.89,2.52,4.91,4.16,6.8,5.94,6.52,6.17,13.49,12,19.34,18.71,5.3,6.12,7.64,13.74,5.94,23.23-2.72-3.44-4.72-6-6.79-8.59-10.52-13-21.63-25.39-37-33-11-5.41-22.5-7.15-35.79-5.27,1.86,2.16,2.74,4,4.18,4.7,6.52,3.1,13,6.51,19.87,8.6,8.65,2.64,15.57,6.64,19.61,16.71-3.6-1.39-6-2.3-8.38-3.24-13.79-5.38-27.39-11.44-42.28-13.15-14.64-1.68-23.4,5.64-24.78,20.47-1,10.77-1.78,21.56-2.71,32.34-.14,1.57-.53,3.12-.82,4.74-5.88-1.78-8.3-6-7.9-12.49a156,156,0,0,0,.51-16.45c-.39-8.59-2-17.11-8.33-23.43-10.61-10.56-23.89-13-38.23-11.11-4.14.55-8.21,1.55-13.26,2.53,3.14-6,7.54-7.93,12.53-9,4.39-.94,8.81-1.79,13.14-3,1.46-.39,2.69-1.62,4-2.47a8.37,8.37,0,0,0-4.84-1.33c-22.22.09-41.67,7.86-58.65,21.84C344,72.56,334.34,81.52,324.4,90.13c-3.3,2.86-6.83,5.45-10.25,8.16l-1.29-.86c.45-1.59.51-3.47,1.43-4.7,3-4,5.91-8.14,9.56-11.46,10-9.06,20.42-17.61,30.43-26.63C358.27,51.05,361.62,46.74,366.22,41.71ZM536.85,208.5l.78-2.1c4.06,1.36,8.32,2.3,12.16,4.13,12.75,6.09,25,13.46,39.07,16.23a97.94,97.94,0,0,1,39.49,17.15,24.85,24.85,0,0,0,4,1.88c-1-9.21-7.45-17.65-16.71-23-13-7.57-27.24-11.35-41.87-14-15.54-2.84-28.77-9.75-39.63-21.44A247.22,247.22,0,0,0,514,168.05c-3.89-3.33-8.71-5.57-13.11-8.3l-1.14.94c.71,4.23,1.43,8.45,2.34,13.85-12-4.79-21.87-12.16-34.58-11.49a341.38,341.38,0,0,1-35.48,0c-12.67-.66-22.45,7.44-34.39,10.34.89-5.09,1.71-9.79,2.67-15.24-7.53,1.91-14,3.39-20.38,5.19-13.83,3.91-25.44,11.44-32.59,24-9.58,16.79-23.49,25.66-42.61,27.07-10.8.8-21.4,3.3-29.45,10.89-9.31,8.78-17.83,18.4-26.48,27.85-3.87,4.23-3.36,11.15,1.12,15.89,2.94-4.53,5.86-8.88,8.63-13.32,4.83-7.74,10.4-14.74,19.11-18.36,11.5-4.77,23-9.49,34.66-13.91,4-1.53,8.37-2.11,12.57-3.13-3.41,8.35-8,14.71-16,17.59-5.95,2.14-12,3.95-18,6-8.18,2.74-16.85,4.7-22.2,12.42a40.38,40.38,0,0,0-2.85,5.7c5.75-2.93,10.79-6.81,16.42-8.08,9.15-2.07,13.26.3,15.22,6.24-3.31,3.3-7.33,4-11.88,3.44-8.82-1.08-13.95,2.72-15.68,11.42-2.52,12.72,1.61,24.1,7.89,34.68,4.39,7.38,9.95,14,15,21.05,1.63,2.28,1.73,4.26-1.78,5.6l-20.74-24.85-1.81,1c1.54,3.85,2.73,7.88,4.67,11.51a174.31,174.31,0,0,0,44.24,53.47c5.2,4.24,10.88,7.83,18.61,9.18-2.13-4.6-3.84-8.3-5.54-12,6.47,1.69,11.56,4.12,14.85,9.45,5.66,9.2,11.59,18.23,17.54,27.26.92,1.39,2.49,2.36,3.77,3.53l1.33-1c-.53-1.45-1-2.94-1.62-4.34-4.71-10.18-8.78-20.51-8.83-32,0-6.18-1-7.1-7.1-7.82-21.91-2.59-38.13-13.2-46.67-34-4.45-10.83-11.17-19.86-19.3-28.14-8.74-8.9-13.05-19.6-10.51-32.28,1.66-8.28,5.14-9.75,12.23-5.1s14,9.56,20.95,14.45c21.88,15.48,46,20.8,72.48,16.87,19.89-2.95,37.65-11.67,56-19,8.95-3.58,11.58-16.42,3.26-23.25-11.05-9.07-21.52-18.87-32.05-28.56-2.68-2.47-4.67-5.7-7.64-9.41l10.13-1.18c-2.33-1.87-3.81-2.85-5-4.08-1.84-1.85-4.44-3.61-5.1-5.87-4.56-15.68.79-36.06,20.94-40.45,17.24-3.76,34.74-4,52.22-2.91,16.08,1,26.16,10.11,30.22,25.3a36.54,36.54,0,0,1,.49,17.44c-1.36,5.48-6.54,9.87-5.73,16.4.11.83-.64,1.88-1.2,2.68-8.93,12.54-18.37,24.5-32.91,31.16-6.19,2.83-7.59,8.36-7.33,14.58.22,5.26,3.58,7.76,8,9.7,9.15,4,18.13,8.34,27.25,12.4,12,5.37,24.34,10,37.54,11.53,24.68,2.92,46.22-4.6,65.66-19.56,3.31-2.55,7.52-4.12,11.53-5.54,3.37-1.19,5.81.12,7.42,3.82,1.75,4.06,0,7.14-1.54,10.4-5.18,11-11.92,21.44-15.3,32.93A63.07,63.07,0,0,1,579,358.48c-8.63,8.27-17.91,15.86-26.79,23.87-1,.93-1.38,2.64-2,4,1.48,0,3.29.44,4.4-.23,6.12-3.67,12.29-7.32,18-11.53,20.51-15,33.69-36.07,46.7-57.21.6-1,0-3.85-.84-4.29-3.93-2-3.46-4.7-2-7.9a53,53,0,0,0,2.66-6.45c3.38-10.63.62-17-9.46-22-3.87-1.91-7.81-3.68-11.71-5.53-5.93-2.82-9.11-8.26-8.51-15.29,2.58,1,5.09,1.82,7.41,3,8.6,4.37,17.18,8.77,25.67,13.34,3.75,2,5.08,1,5.31-3,.63-11-6.27-23.16-17.7-27-10.61-3.55-21.87-5.36-33-7.16C559.59,232.21,545.71,224.24,536.85,208.5ZM446.34,388.34l-1.25.29a17.6,17.6,0,0,1-1.76-3.87c-2.07-11.25-5.24-22.47-5.69-33.79-.64-16.09.72-32.27,1.31-48.41.14-3.89-1.09-5-5-3.86-12.14,3.45-24.32,6.78-36.58,9.77-6.17,1.51-9,5.27-10.66,11.1A51.11,51.11,0,0,1,380.4,334C365.7,355.9,363.53,379.21,376,402c9.42,17.24,22.18,32.68,33.75,48.71,4.09,5.65,10.49,8.12,17.19,9.26,11.61,2,13,.83,14-10.93a4.16,4.16,0,0,1,.17-1.48c.77-1.51,1.65-3,2.48-4.44,1.59,1.28,3.93,2.26,4.61,3.91,1.11,2.7.74,6,1.77,8.74.65,1.75,2.79,4.31,4.12,4.23a104.47,104.47,0,0,0,19.59-2.56c11.23-2.86,18.4-11.38,25.68-19.74,18.14-20.83,25.36-44.54,17-71.27C511,349,503.55,332.22,496.81,315.26a9,9,0,0,0-4.52-4.3c-10.1-4.31-20.33-8.29-30.49-12.42-2.85-1.16-4.39-.74-5.45,2.62-5.61,17.86-9.27,36.07-9.94,54.78C446,366.73,446.34,377.54,446.34,388.34ZM275.7,83.86l1.93.8c-1,4.66-1.91,9.31-3.12,15.22a28.16,28.16,0,0,0,2.91-2.35c7.34-8.66,15.36-16.42,25.15-22.5,2.75-1.71,3.89-6.54,5-10.18.9-2.91-1.2-4.56-4.14-4.95-21.36-2.84-41.08,1.31-58.53,14.26-4.38,3.25-8,7.53-12.34,11.69,7,5.21,12.88,9.73,18.91,14.11,3.83,2.79,7.5,2.22,10.69-1.2,2.5-2.68,4.89-5.45,7.35-8.16C271.56,88.34,273.64,86.11,275.7,83.86ZM183,414.29c-1.33-3-2-5.3-3.32-7.26-11.17-17.21-30.63-24.84-50.4-19.14-11.32,3.27-23,6.67-29.43,18-1.1,1.91-1.92,4.88-1.18,6.65.55,1.32,3.82,2.1,5.88,2.12,24.17.15,48.33.12,72.5.11C178.66,414.74,180.26,414.5,183,414.29ZM609.66,92.14l1.3-.69a80.35,80.35,0,0,0-1-9.34c-.91-4.08,1.36-5.31,4.28-4.21a53.58,53.58,0,0,1,11.49,6.35c4.71,3.29,8.73,7.71,13.69,10.49,4.63,2.6,8.64-.48,13-7.87,2.59-4.42.64-7.31-2.75-9.73-8.12-5.79-16-12-24.59-17C613.84,53.57,601.78,50,588.8,54.87c-8.29,3.15-9.28,7.42-3.25,13.76,1.8,1.9,4.24,3.17,6.21,4.92,4.3,3.82,8.59,7.65,12.65,11.71C606.43,87.28,607.93,89.83,609.66,92.14ZM579.92,320.59c-11.53,0-22.64-.4-33.72.11-13.66.62-16.48,4.17-15.77,17.76,0,.5,0,1,.08,1.5,1.19,8.61,4,11.91,10.31,12.3C558.29,353.35,576.5,339,579.92,320.59ZM155.57,367.73c6.11-1.23,13-3.83,18.19-9.18,3.63-3.71,5.23-8.63,2.62-13.72q-6.13-11.94-12.78-23.61c-2.15-3.79-4.8-4-7.43-.57a61.92,61.92,0,0,0-12.89,33.42C142.65,362.09,147.64,367.77,155.57,367.73Zm592.14-10.56c-2.38-7.95-4.87-17.21-8-26.24-1.51-4.36-4-4.75-7-1.33Q723.41,340,714.81,351a9.59,9.59,0,0,0-.59,11.68c4.64,7,11.28,11.68,19,14.8,1.31.54,3.37.11,4.76-.55C745.69,373.29,745.42,365.55,747.71,357.17Zm-51.2,57.13h72.78c-11.09-10.57-23.63-17.95-39.06-17.69C716.86,396.84,705.77,402.55,696.51,414.3ZM315.16,311.77c.41,1.89.37,3.31,1,4.29,4.26,6.68,8,13.88,13.25,19.67,4,4.38,9.77,7.43,15.21,10.13,5.21,2.58,7,1.08,7-4.45,0-6.5-.05-13,.07-19.5.06-3-.86-4.41-4.1-4.93-8.21-1.31-16.33-3.16-24.52-4.64A72.73,72.73,0,0,0,315.16,311.77ZM109.58,322.85l-1.88-.55c-1.67,1.9-4.15,3.53-4.88,5.75a220.55,220.55,0,0,0-6.1,22.33,13.19,13.19,0,0,0,4.74,13A92.36,92.36,0,0,0,118,374.12c4.27,2.16,7.49-1.08,6.51-5.9a24.15,24.15,0,0,0-1.4-3.7c-3.35-8.8-6.91-17.53-9.94-26.44C111.53,333.16,110.76,327.94,109.58,322.85Zm678.16,18.77h-1.83c-1,1.82-2.12,3.62-3.09,5.47-4.09,7.77-8,15.66-12.26,23.31-2.51,4.46-5.93,8.42-8.41,12.9a7,7,0,0,0,0,5.95c.64,1.08,3.59,1.52,5.25,1.14a97.28,97.28,0,0,0,13.77-4.22c5.83-2.3,10-7,10.57-13,.72-7.82,0-15.81-.67-23.68C790.82,346.83,788.9,344.26,787.74,341.62ZM684.5,365.55a9.47,9.47,0,0,0-.06-3,52.38,52.38,0,0,0-2.35-5.05c-1.71.93-3.76,1.54-5.06,2.87a26.85,26.85,0,0,0-4.15,6.16c-4.22,8-8,16.08-6.51,25.49,1.45,8.91,7.43,12.34,15.76,9.19,1.71-.64,3.38-1.37,5.06-2.06,7.77-3.21,8.25-4.27,3.93-11.57C687.06,380.76,684.47,373.56,684.5,365.55ZM218.62,384.6c-2-7-3.76-13.73-6.09-20.25-.72-2-3.13-3.42-4.77-5.1a53.49,53.49,0,0,0-4.19,6.16c-2.79,5.58-4.51,11.87-8.11,16.83-8.6,11.87-8.55,13.42,4.59,20.45.29.15.61.26.91.41,5.27,2.55,9.63,1.76,12.32-3.43C215.67,395.05,216.84,389.8,218.62,384.6ZM71.17,361c-.88,3.88-1.84,6.26-1.89,8.65-.21,9.74,1.43,19,9.74,25.37,4.43,3.4,8.09,2.93,11.08-.51,3.17-3.65,2.74-6.3-1-10.9-4.92-6-9.54-12.28-14.31-18.42C73.91,364.12,72.94,363.09,71.17,361Zm744,26.68c-7.85,6.35-15.38,12.18-22.55,18.43-1.76,1.53-2.33,4.42-3.45,6.68a42.68,42.68,0,0,0,6.61,1.81,40.16,40.16,0,0,0,8,0c1.41-.13,3.24-.48,4.06-1.44C814,405.87,816.06,397.37,815.12,387.72Zm-396-168.24c11,2.81,16.08-.07,17.78-9,1.74-9.22-2.4-15.78-11.14-16.79C423.23,202,428.82,212.36,419.11,219.48Zm60-1.07c-4.36-3.95-4.75-8.3-3.74-13.18a33.38,33.38,0,0,0,.41-8.42,4.35,4.35,0,0,0-1.94-3.06c-.54-.32-2.14.58-2.89,1.3-4.23,4.08-5.8,9.18-5.28,14.94C466.3,217.46,470.44,220.23,479.07,218.41Zm-149.54,177-1.26,1.06c2.1,5.37,4.12,10.75,6.35,16.06a3.68,3.68,0,0,0,2.48,2c4.36.2,8.75.09,14.29.09C345.39,405.27,338.05,399.65,329.53,395.42ZM545.67,398c-6.94,4.59-12.59,9-16.58,16.71,5.53,0,9.79.14,14-.12a3.5,3.5,0,0,0,2.43-2.39C545.8,407.79,545.67,403.4,545.67,398ZM425.45,46.23c3.48,5.78,8.13,8.93,12.17,8,2.45-.58,4.53-2.7,6.77-4.13l-.69-1.74Zm42.17,11.6,7.08-6.43c-2.29-1.27-4.63-3.63-6.83-3.51-2.49.14-4.85,2.51-7.27,3.9ZM447,60.06l-1,2c2,1.44,3.89,3.6,6.12,4.08,1.69.38,3.85-1.38,5.8-2.19l-.44-1.74Z" transform="translate(-18 -21.5)"/><path class="cls-2" d="M578,21.5c-7.47,1.5-15,2.93-22.4,4.51-17.27,3.67-34.58,6.78-52.37,5.57-6.65-.45-13.32-.56-19.94-1.22-10.27-1-19.78.73-28.72,6.1a10.81,10.81,0,0,1-7.32.89c-12.92-3-25.59-7.78-38.66-9.25-14.64-1.64-29.66.38-44.41-.67C352,26.57,340.06,23.56,328,21.5" transform="translate(-18 -21.5)"/><path class="cls-2" d="M366.22,41.71c-4.6,5-8,9.34-11.94,12.93-10,9-20.46,17.57-30.43,26.63-3.65,3.32-6.57,7.49-9.56,11.46-.92,1.23-1,3.11-1.43,4.7l1.29.86c3.42-2.71,7-5.3,10.25-8.16,9.94-8.61,19.59-17.57,29.73-25.93,17-14,36.43-21.75,58.65-21.84a8.37,8.37,0,0,1,4.84,1.33c-1.33.85-2.56,2.08-4,2.47-4.33,1.17-8.75,2-13.14,3-5,1.08-9.39,3-12.53,9,5.05-1,9.12-2,13.26-2.53,14.34-1.88,27.62.55,38.23,11.11,6.36,6.32,7.94,14.84,8.33,23.43a156,156,0,0,1-.51,16.45c-.4,6.46,2,10.71,7.9,12.49.29-1.62.68-3.17.82-4.74.93-10.78,1.71-21.57,2.71-32.34,1.38-14.83,10.14-22.15,24.78-20.47,14.89,1.71,28.49,7.77,42.28,13.15,2.38.94,4.78,1.85,8.38,3.24-4-10.07-11-14.07-19.61-16.71-6.87-2.09-13.35-5.5-19.87-8.6-1.44-.69-2.32-2.54-4.18-4.7,13.29-1.88,24.84-.14,35.79,5.27,15.34,7.57,26.45,19.95,37,33,2.07,2.55,4.07,5.15,6.79,8.59,1.7-9.49-.64-17.11-5.94-23.23-5.85-6.75-12.82-12.54-19.34-18.71-1.89-1.78-3.91-3.42-6.8-5.94,6.71-2.7,12.42-5.13,18.24-7.29s11.65-4,17.45-6c17.22-6.06,33.5-.39,49.82,4.06C650.86,45.11,674,60.07,695,78.81a27,27,0,0,1,2.22,2.53c-.17.43-.33.86-.49,1.29-5.18-1.53-10.68-2.41-15.47-4.75A61.7,61.7,0,0,1,667,68.11c-18-16.46-39.55-25.17-63.2-29.82-15.73-3.09-30.39-1.73-44.08,7.07-6.13,4-6.86,7.34-2.42,13q28.5,36.27,57,72.55a29.44,29.44,0,0,0,17,10.54c3.89.93,7.52,3.21,11,5.27.67.39.9,3.1.27,3.88-7.49,9.25-15.64,9.15-23.12-.1a1.86,1.86,0,0,0-1.38-1c5.93,18.35,12.31,36.47,10.16,56.32C612.14,197,607.68,182,604.83,164.39c-2.15,3.16-3.55,5-4.74,7-2.6,4.29-6.07,5.91-11,4.13-5.31-1.92-10.65-3.78-16-5.5-1.75-.56-3.67-.58-6.78-1,4.57,7.93,10.44,11.43,17.25,12.6,9.06,1.55,15.35,6.74,20.89,13.41a50.82,50.82,0,0,1,7,10c-3.38-.62-6.8-1.13-10.15-1.89q-16.56-3.71-33.06-7.58c-10.22-2.38-16.89-10.22-24.91-16.07-15-10.95-30.53-21.24-45.67-32-8.24-5.88-16.15-12.24-24.22-18.36-1-.77-2.09-1.43-3.66-2.49-.57,12.92,9.09,19,16.8,27.47H406.12l11.38-23.59-1.75-1.1a29.57,29.57,0,0,0-3.66,2.88c-11.06,11.84-24.69,19.56-39.74,25.05a77.38,77.38,0,0,0-33,23.33c-3.43,4.06-7.22,7.82-10.89,11.68A33.35,33.35,0,0,1,305.54,203c-15.43,1-28.34,7.76-39.43,18.32-3.28,3.13-6.77,6-10.16,9l-1.82-1c.87-3.17,1.53-6.41,2.63-9.49,4.55-12.86,13.92-20.71,26.44-25.35,8.88-3.3,17.7-6.79,26.49-10.36,7.19-2.92,12.88-7.54,15.5-15.18a45.48,45.48,0,0,0,.95-5.35c-4.94,2.64-8.83,4.57-12.57,6.75-7.36,4.3-7.26,4.34-10.49-3.67-1.42-3.51-3.14-6.9-4.72-10.34l-1.41.33a12.8,12.8,0,0,0-.58,3.06c.09,1.82.49,3.63.71,5.45,1.57,12.44.55,13.16-10.56,18.41-7.69,3.63-14.5,9.13-21.8,13.63-1.84,1.13-4.07,1.62-6.12,2.41a30.67,30.67,0,0,1-.3-5.64c.71-5.61,1.78-11.17,2.46-16.79.37-3,1.31-4.34,4.75-3.94,6.52.76,11.65-2.13,15.46-7.34,6.86-9.4,13.75-18.79,20.46-28.31,12.91-18.34,30.48-30.89,50.28-40.66,4.29-2.12,8.66-4.65,13.27-5.46,11.41-2,18.31,5.12,21.59,13.73,2.52,6.64,3.92,13.71,6.17,21.85,1.75-2.38,3.5-3.93,4.2-5.86,4.29-11.78-3.5-31.34-14.64-37-7.48-3.78-14.91-2-22.28.54-34.43,12-59.33,35.27-78.47,65.57-3.57,5.66-7.92,10.83-11.91,16.23l-1.35-.69a19.42,19.42,0,0,1,.64-2.76c3.43-8.62,6.93-17.22,10.33-25.86a8.7,8.7,0,0,0,.72-3.9,42.92,42.92,0,0,0-1.39-5.83c-1.44,1.34-3.26,2.45-4.25,4.06-4.35,7.08-8.42,14.34-12.68,21.47-2.75,4.62-6.34,6.36-10.3,4.26a7.73,7.73,0,0,1-3.6-5.58c-.09-5.09,1-10.2,1.18-15.32.13-3.66,1.17-6,5.06-6.76,19.32-3.79,32.11-16,42.58-31.94,8.87-13.46,18.78-26.24,28.21-39.32A24.94,24.94,0,0,0,327,55.12c3.92-7.82,1.71-12.44-7-12.94-31.27-1.8-60.72,3.29-85.87,23.84a86.3,86.3,0,0,1-10.37,6.88c-.72.44-2-.05-3-.1.29-.85.33-2,.91-2.51,13.84-13,27.26-26.44,45.43-33.65,21.31-8.45,42.9-9.81,65-3.71C342.82,35.88,353.6,38.48,366.22,41.71Zm194.9,88.08c-3.24.72-5.07,1.18-6.9,1.54-7.72,1.5-14.63,4.62-19.85,10.64-3.81,4.41-5.94,9.43-3.67,15.86a60.16,60.16,0,0,1,6.92-2c2.89-.47,6.37-1.65,8.69-.58,10.2,4.75,20.6,4.37,31.33,3,4.31-.54,7.85-.83,7-7l17,6.57c1.41-5-1.33-7.82-4-10.41a100.7,100.7,0,0,0-9.17-7.7c-8.76-6.54-17.23-13.59-26.56-19.21-7.1-4.28-15.32-6.28-23.94-3.39-9.2,3.09-15.49,14.83-12.29,22.1,4.87-4.24,9.39-9.54,15.08-12.78C547.06,122.93,553.8,125,561.12,129.79ZM312.91,150.25c3.53.81,6.57,2.14,9.6,2.11,14.75-.14,29.5-.48,44.23-1.12,4.21-.18,5.34-3.34,2.4-6.6a15.16,15.16,0,0,1-4-13.74,10.16,10.16,0,0,0-.59-4.39c-3.86-12.92-23.93-18.57-34.45-9.38-8.75,7.64-17,15.83-25.37,23.93-1.59,1.54-2.44,3.84-3.63,5.79l1.14,1,13.87-9.15C314.81,143.47,313.91,146.7,312.91,150.25Zm190.83-25.59c.27-2.31.48-3.89.63-5.48.32-3.32.48-6.65.94-10,2-14.69,13.07-20,25.56-12.06,13.35,8.48,26.76,16.67,41.66,22.4,8.61,3.31,16.69,8.12,24.8,12.64,2.86,1.59,5.09,4.32,7.61,6.53l1.11-.72a42.56,42.56,0,0,0-1.11-5.06c-3.08-8.85-9.87-13.71-18.08-17.44-14.8-6.73-29.52-13.65-44-21-5.9-3-11-7.45-16.74-10.83-5-2.93-10.69-3.28-14.91.77a79.27,79.27,0,0,0-13.09,16.14C493.68,108,496.54,119.23,503.74,124.66Z" transform="translate(-18 -21.5)"/><path class="cls-2" d="M536.85,208.5c8.86,15.74,22.74,23.71,40.34,26.55,11.1,1.8,22.36,3.61,33,7.16,11.43,3.82,18.33,16,17.7,27-.23,4-1.56,5.06-5.31,3-8.49-4.57-17.07-9-25.67-13.34-2.32-1.17-4.83-2-7.41-3-.6,7,2.58,12.47,8.51,15.29,3.9,1.85,7.84,3.62,11.71,5.53,10.08,5,12.84,11.38,9.46,22a53,53,0,0,1-2.66,6.45c-1.51,3.2-2,5.87,2,7.9.85.44,1.44,3.33.84,4.29-13,21.14-26.19,42.22-46.7,57.21-5.75,4.21-11.92,7.86-18,11.53-1.11.67-2.92.18-4.4.23.65-1.35,1-3.06,2-4,8.88-8,18.16-15.6,26.79-23.87A63.07,63.07,0,0,0,596.39,330c3.38-11.49,10.12-22,15.3-32.93,1.54-3.26,3.29-6.34,1.54-10.4-1.61-3.7-4.05-5-7.42-3.82-4,1.42-8.22,3-11.53,5.54-19.44,15-41,22.48-65.66,19.56-13.2-1.56-25.5-6.16-37.54-11.53C482,292.38,473,288,463.83,284c-4.45-1.94-7.81-4.44-8-9.7-.26-6.22,1.14-11.75,7.33-14.58,14.54-6.66,24-18.62,32.91-31.16.56-.8,1.31-1.85,1.2-2.68-.81-6.53,4.37-10.92,5.73-16.4a36.54,36.54,0,0,0-.49-17.44c-4.06-15.19-14.14-24.33-30.22-25.3-17.48-1.06-35-.85-52.22,2.91-20.15,4.39-25.5,24.77-20.94,40.45.66,2.26,3.26,4,5.1,5.87,1.23,1.23,2.71,2.21,5,4.08l-10.13,1.18c3,3.71,5,6.94,7.64,9.41,10.53,9.69,21,19.49,32.05,28.56,8.32,6.83,5.69,19.67-3.26,23.25-18.35,7.35-36.11,16.07-56,19-26.49,3.93-50.6-1.39-72.48-16.87-6.92-4.89-13.86-9.79-20.95-14.45s-10.57-3.18-12.23,5.1c-2.54,12.68,1.77,23.38,10.51,32.28,8.13,8.28,14.85,17.31,19.3,28.14,8.54,20.8,24.76,31.41,46.67,34,6.09.72,7.07,1.64,7.1,7.82.05,11.47,4.12,21.8,8.83,32,.65,1.4,1.09,2.89,1.62,4.34l-1.33,1c-1.28-1.17-2.85-2.14-3.77-3.53-5.95-9-11.88-18.06-17.54-27.26-3.29-5.33-8.38-7.76-14.85-9.45,1.7,3.69,3.41,7.39,5.54,12-7.73-1.35-13.41-4.94-18.61-9.18A174.31,174.31,0,0,1,273.11,324c-1.94-3.63-3.13-7.66-4.67-11.51l1.81-1L291,336.29c3.51-1.34,3.41-3.32,1.78-5.6-5-7-10.58-13.67-15-21.05-6.28-10.58-10.41-22-7.89-34.68,1.73-8.7,6.86-12.5,15.68-11.42,4.55.55,8.57-.14,11.88-3.44-2-5.94-6.07-8.31-15.22-6.24-5.63,1.27-10.67,5.15-16.42,8.08a40.38,40.38,0,0,1,2.85-5.7c5.35-7.72,14-9.68,22.2-12.42,6-2,12.06-3.82,18-6,8-2.88,12.61-9.24,16-17.59-4.2,1-8.57,1.6-12.57,3.13-11.64,4.42-23.16,9.14-34.66,13.91-8.71,3.62-14.28,10.62-19.11,18.36-2.77,4.44-5.69,8.79-8.63,13.32-4.48-4.74-5-11.66-1.12-15.89,8.65-9.45,17.17-19.07,26.48-27.85,8.05-7.59,18.65-10.09,29.45-10.89,19.12-1.41,33-10.28,42.61-27.07,7.15-12.52,18.76-20,32.59-24,6.38-1.8,12.85-3.28,20.38-5.19-1,5.45-1.78,10.15-2.67,15.24,11.94-2.9,21.72-11,34.39-10.34a341.38,341.38,0,0,0,35.48,0c12.71-.67,22.62,6.7,34.58,11.49-.91-5.4-1.63-9.62-2.34-13.85l1.14-.94c4.4,2.73,9.22,5,13.11,8.3a247.22,247.22,0,0,1,20.15,19.23C545,199,558.26,205.88,573.8,208.72c14.63,2.68,28.87,6.46,41.87,14,9.26,5.39,15.67,13.83,16.71,23a24.85,24.85,0,0,1-4-1.88,97.94,97.94,0,0,0-39.49-17.15c-14.11-2.77-26.32-10.14-39.07-16.23-3.84-1.83-8.1-2.77-12.16-4.13Zm-189.58,73c-3.46-.37-6.27-1.08-9-.86-4.31.34-7-1-9.35-4.83-1.84-2.95-4.92-5.29-7.85-7.29-1.08-.74-3.92-.37-4.88.59s-1.19,3.62-.51,4.87c2.64,4.91,6.86,8.93,12.5,8.4,5.12-.48,8.13.74,10.26,5.13.32.66,1.24,1,2,1.62,1.82-1.69,3.55-3.23,5.2-4.85A17.76,17.76,0,0,0,347.27,281.51Zm-17.71-25.82c-4.22,8.56-3.61,10,4.45,12.34,2.2.65,4.24,1.84,6.43,2.53,1.28.4,3.41.93,3.94.33,1.06-1.21,2.09-3.41,1.66-4.73a9.61,9.61,0,0,0-4-5.17C338.19,258.88,333.93,257.49,329.56,255.69Zm203,41.28c2.46-2.34,5.07-3.88,6-6.1.44-1.09-2.34-3.46-3.67-5.25-2.24,2.38-4.53,4.73-6.57,7.27C528.21,293,530.48,295,532.57,297Zm27.63-5.46c6.24-.19,7-.86,7-4.33,0-3-1.33-4.16-4.26-3.92s-5.64.42-4.72,4.36A15.38,15.38,0,0,0,560.2,291.51Zm-3-18.53-10.13-2c-.29.44-.57.88-.85,1.32l4.8,9.38Zm-10.82,22.69c2.76-2.3,7.11-2.7,6.22-7.27-.17-.83-4.32-2-5.76-1.24C543.07,289.09,544.9,292.22,546.43,295.67Zm-1.22-19.92-4.9-4.46c-1.35,1.66-2.93,3.2-3.83,5.08-.18.36,2.42,2.94,3.6,2.84C541.63,279.08,543.05,277.31,545.21,275.75Z" transform="translate(-18 -21.5)"/><path class="cls-2" d="M446.34,388.34c0-10.8-.31-21.61.07-32.4.67-18.71,4.33-36.92,9.94-54.78,1.06-3.36,2.6-3.78,5.45-2.62,10.16,4.13,20.39,8.11,30.49,12.42a9,9,0,0,1,4.52,4.3c6.74,17,14.15,33.74,19.57,51.13,8.33,26.73,1.11,50.44-17,71.27-7.28,8.36-14.45,16.88-25.68,19.74A104.47,104.47,0,0,1,454.08,460c-1.33.08-3.47-2.48-4.12-4.23-1-2.75-.66-6-1.77-8.74-.68-1.65-3-2.63-4.61-3.91-.83,1.48-1.71,2.93-2.48,4.44a4.16,4.16,0,0,0-.17,1.48c-1.08,11.76-2.43,12.92-14,10.93-6.7-1.14-13.1-3.61-17.19-9.26-11.57-16-24.33-31.47-33.75-48.71C363.53,379.21,365.7,355.9,380.4,334a51.11,51.11,0,0,0,6.27-14.44c1.67-5.83,4.49-9.59,10.66-11.1,12.26-3,24.44-6.32,36.58-9.77,3.95-1.13,5.18,0,5,3.86-.59,16.14-1.95,32.32-1.31,48.41.45,11.32,3.62,22.54,5.69,33.79a17.6,17.6,0,0,0,1.76,3.87Z" transform="translate(-18 -21.5)"/><path class="cls-2" d="M275.7,83.86c-2.06,2.25-4.14,4.48-6.18,6.74-2.46,2.71-4.85,5.48-7.35,8.16-3.19,3.42-6.86,4-10.69,1.2-6-4.38-11.95-8.9-18.91-14.11,4.33-4.16,8-8.44,12.34-11.69,17.45-12.95,37.17-17.1,58.53-14.26,2.94.39,5,2,4.14,4.95-1.12,3.64-2.26,8.47-5,10.18-9.79,6.08-17.81,13.84-25.15,22.5a28.16,28.16,0,0,1-2.91,2.35c1.21-5.91,2.16-10.56,3.12-15.22Z" transform="translate(-18 -21.5)"/><path class="cls-2" d="M183,414.29c-2.76.21-4.36.45-6,.45-24.17,0-48.33,0-72.5-.11-2.06,0-5.33-.8-5.88-2.12-.74-1.77.08-4.74,1.18-6.65,6.48-11.3,18.11-14.7,29.43-18,19.77-5.7,39.23,1.93,50.4,19.14C181,409,181.69,411.33,183,414.29Z" transform="translate(-18 -21.5)"/><path class="cls-2" d="M609.66,92.14c-1.73-2.31-3.23-4.86-5.25-6.88-4.06-4.06-8.35-7.89-12.65-11.71-2-1.75-4.41-3-6.21-4.92-6-6.34-5-10.61,3.25-13.76,13-4.92,25-1.3,36.22,5.26,8.57,5,16.47,11.22,24.59,17,3.39,2.42,5.34,5.31,2.75,9.73-4.33,7.39-8.34,10.47-13,7.87-5-2.78-9-7.2-13.69-10.49a53.58,53.58,0,0,0-11.49-6.35c-2.92-1.1-5.19.13-4.28,4.21a80.35,80.35,0,0,1,1,9.34Z" transform="translate(-18 -21.5)"/><path class="cls-2" d="M579.92,320.59c-3.42,18.42-21.63,32.76-39.1,31.67-6.35-.39-9.12-3.69-10.31-12.3-.07-.49,0-1-.08-1.5-.71-13.59,2.11-17.14,15.77-17.76C557.28,320.19,568.39,320.59,579.92,320.59Z" transform="translate(-18 -21.5)"/><path class="cls-2" d="M155.57,367.73c-7.93,0-12.92-5.64-12.29-13.66a61.92,61.92,0,0,1,12.89-33.42c2.63-3.42,5.28-3.22,7.43.57q6.61,11.68,12.78,23.61c2.61,5.09,1,10-2.62,13.72C168.53,363.9,161.68,366.5,155.57,367.73Z" transform="translate(-18 -21.5)"/><path class="cls-2" d="M747.71,357.17c-2.29,8.38-2,16.12-9.76,19.78-1.39.66-3.45,1.09-4.76.55-7.69-3.12-14.33-7.79-19-14.8a9.59,9.59,0,0,1,.59-11.68q8.58-11,17.88-21.42c3-3.42,5.51-3,7,1.33C742.84,340,745.33,349.22,747.71,357.17Z" transform="translate(-18 -21.5)"/><path class="cls-2" d="M696.51,414.3c9.26-11.75,20.35-17.46,33.72-17.69,15.43-.26,28,7.12,39.06,17.69Z" transform="translate(-18 -21.5)"/><path class="cls-2" d="M315.16,311.77a72.73,72.73,0,0,1,7.95.57c8.19,1.48,16.31,3.33,24.52,4.64,3.24.52,4.16,1.95,4.1,4.93-.12,6.5,0,13-.07,19.5,0,5.53-1.83,7-7,4.45-5.44-2.7-11.21-5.75-15.21-10.13-5.27-5.79-9-13-13.25-19.67C315.53,315.08,315.57,313.66,315.16,311.77Z" transform="translate(-18 -21.5)"/><path class="cls-2" d="M109.58,322.85c1.18,5.09,2,10.31,3.62,15.23,3,8.91,6.59,17.64,9.94,26.44a24.15,24.15,0,0,1,1.4,3.7c1,4.82-2.24,8.06-6.51,5.9a92.36,92.36,0,0,1-16.57-10.71,13.19,13.19,0,0,1-4.74-13,220.55,220.55,0,0,1,6.1-22.33c.73-2.22,3.21-3.85,4.88-5.75Z" transform="translate(-18 -21.5)"/><path class="cls-2" d="M787.74,341.62c1.16,2.64,3.08,5.21,3.31,7.92.67,7.87,1.39,15.86.67,23.68-.55,6-4.74,10.66-10.57,13a97.28,97.28,0,0,1-13.77,4.22c-1.66.38-4.61-.06-5.25-1.14a7,7,0,0,1,0-5.95c2.48-4.48,5.9-8.44,8.41-12.9,4.3-7.65,8.17-15.54,12.26-23.31,1-1.85,2-3.65,3.09-5.47Z" transform="translate(-18 -21.5)"/><path class="cls-2" d="M684.5,365.55c0,8,2.56,15.21,6.62,22.06,4.32,7.3,3.84,8.36-3.93,11.57-1.68.69-3.35,1.42-5.06,2.06-8.33,3.15-14.31-.28-15.76-9.19-1.53-9.41,2.29-17.53,6.51-25.49A26.85,26.85,0,0,1,677,360.4c1.3-1.33,3.35-1.94,5.06-2.87a52.38,52.38,0,0,1,2.35,5.05A9.47,9.47,0,0,1,684.5,365.55Z" transform="translate(-18 -21.5)"/><path class="cls-2" d="M218.62,384.6c-1.78,5.2-3,10.45-5.34,15.07-2.69,5.19-7.05,6-12.32,3.43-.3-.15-.62-.26-.91-.41-13.14-7-13.19-8.58-4.59-20.45,3.6-5,5.32-11.25,8.11-16.83a53.49,53.49,0,0,1,4.19-6.16c1.64,1.68,4.05,3.09,4.77,5.1C214.86,370.87,216.58,377.61,218.62,384.6Z" transform="translate(-18 -21.5)"/><path class="cls-2" d="M71.17,361c1.77,2,2.74,3.08,3.6,4.19,4.77,6.14,9.39,12.4,14.31,18.42,3.76,4.6,4.19,7.25,1,10.9-3,3.44-6.65,3.91-11.08.51-8.31-6.38-10-15.63-9.74-25.37C69.33,367.3,70.29,364.92,71.17,361Z" transform="translate(-18 -21.5)"/><path class="cls-2" d="M815.12,387.72c.94,9.65-1.17,18.15-7.35,25.44-.82,1-2.65,1.31-4.06,1.44a40.16,40.16,0,0,1-8,0,42.68,42.68,0,0,1-6.61-1.81c1.12-2.26,1.69-5.15,3.45-6.68C799.74,399.9,807.27,394.07,815.12,387.72Z" transform="translate(-18 -21.5)"/><path class="cls-2" d="M419.11,219.48c9.71-7.12,4.12-17.45,6.64-25.8,8.74,1,12.88,7.57,11.14,16.79C435.19,219.41,430.14,222.29,419.11,219.48Z" transform="translate(-18 -21.5)"/><path class="cls-2" d="M479.07,218.41c-8.63,1.82-12.77-.95-13.44-8.42-.52-5.76,1.05-10.86,5.28-14.94.75-.72,2.35-1.62,2.89-1.3a4.35,4.35,0,0,1,1.94,3.06,33.38,33.38,0,0,1-.41,8.42C474.32,210.11,474.71,214.46,479.07,218.41Z" transform="translate(-18 -21.5)"/><path class="cls-2" d="M329.53,395.42c8.52,4.23,15.86,9.85,21.86,19.23-5.54,0-9.93.11-14.29-.09a3.68,3.68,0,0,1-2.48-2c-2.23-5.31-4.25-10.69-6.35-16.06Z" transform="translate(-18 -21.5)"/><path class="cls-2" d="M545.67,398c0,5.44.13,9.83-.12,14.2a3.5,3.5,0,0,1-2.43,2.39c-4.24.26-8.5.12-14,.12C533.08,406.91,538.73,402.55,545.67,398Z" transform="translate(-18 -21.5)"/><path class="cls-2" d="M425.45,46.23l18.25,2.09.69,1.74c-2.24,1.43-4.32,3.55-6.77,4.13C433.58,55.16,428.93,52,425.45,46.23Z" transform="translate(-18 -21.5)"/><path class="cls-2" d="M467.62,57.83l-7-6c2.42-1.39,4.78-3.76,7.27-3.9,2.2-.12,4.54,2.24,6.83,3.51Z" transform="translate(-18 -21.5)"/><path class="cls-2" d="M447,60.06l10.49,2.11.44,1.74c-1.95.81-4.11,2.57-5.8,2.19-2.23-.48-4.09-2.64-6.12-4.08Z" transform="translate(-18 -21.5)"/><path class="cls-1" d="M561.12,129.79c-7.32-4.8-14.06-6.86-20.35-3.29-5.69,3.24-10.21,8.54-15.08,12.78-3.2-7.27,3.09-19,12.29-22.1,8.62-2.89,16.84-.89,23.94,3.39,9.33,5.62,17.8,12.67,26.56,19.21a100.7,100.7,0,0,1,9.17,7.7c2.7,2.59,5.44,5.39,4,10.41l-17-6.57c.81,6.14-2.73,6.43-7,7-10.73,1.33-21.13,1.71-31.33-3-2.32-1.07-5.8.11-8.69.58a60.16,60.16,0,0,0-6.92,2c-2.27-6.43-.14-11.45,3.67-15.86,5.22-6,12.13-9.14,19.85-10.64C556.05,131,557.88,130.51,561.12,129.79Zm5.57,13.6c0-4-3.86-8-7.6-7.83s-7.28,4.2-7.18,8.22a7.1,7.1,0,0,0,7.51,7A7.54,7.54,0,0,0,566.69,143.39Z" transform="translate(-18 -21.5)"/><path class="cls-1" d="M312.91,150.25c1-3.55,1.9-6.78,3.24-11.55l-13.87,9.15-1.14-1c1.19-1.95,2-4.25,3.63-5.79,8.33-8.1,16.62-16.29,25.37-23.93,10.52-9.19,30.59-3.54,34.45,9.38a10.16,10.16,0,0,1,.59,4.39,15.16,15.16,0,0,0,4,13.74c2.94,3.26,1.81,6.42-2.4,6.6-14.73.64-29.48,1-44.23,1.12C319.48,152.39,316.44,151.06,312.91,150.25Zm29.24-3.2a7.58,7.58,0,0,0,.13-15.16c-4,0-7.38,3.65-7.33,7.83A7.38,7.38,0,0,0,342.15,147.05Zm15.53-18.17c-4.49-5.27-10.56-7.32-17.36-7-4.29.2-8.41,1.61-10.95,5Z" transform="translate(-18 -21.5)"/><path class="cls-1" d="M503.74,124.66c-7.2-5.43-10.06-16.66-5.65-24a79.27,79.27,0,0,1,13.09-16.14c4.22-4,9.94-3.7,14.91-.77,5.72,3.38,10.84,7.85,16.74,10.83,14.51,7.33,29.23,14.25,44,21,8.21,3.73,15,8.59,18.08,17.44a42.56,42.56,0,0,1,1.11,5.06l-1.11.72c-2.52-2.21-4.75-4.94-7.61-6.53-8.11-4.52-16.19-9.33-24.8-12.64-14.9-5.73-28.31-13.92-41.66-22.4-12.49-7.93-23.52-2.63-25.56,12.06-.46,3.3-.62,6.63-.94,10C504.22,120.77,504,122.35,503.74,124.66Z" transform="translate(-18 -21.5)"/><path class="cls-1" d="M347.27,281.51a17.76,17.76,0,0,1-1.62,2.78c-1.65,1.62-3.38,3.16-5.2,4.85-.77-.6-1.69-1-2-1.62-2.13-4.39-5.14-5.61-10.26-5.13-5.64.53-9.86-3.49-12.5-8.4-.68-1.25-.42-3.95.51-4.87s3.8-1.33,4.88-.59c2.93,2,6,4.34,7.85,7.29,2.36,3.78,5,5.17,9.35,4.83C341,280.43,343.81,281.14,347.27,281.51Z" transform="translate(-18 -21.5)"/><path class="cls-1" d="M329.56,255.69c4.37,1.8,8.63,3.19,12.5,5.3a9.61,9.61,0,0,1,4,5.17c.43,1.32-.6,3.52-1.66,4.73-.53.6-2.66.07-3.94-.33-2.19-.69-4.23-1.88-6.43-2.53C326,265.67,325.34,264.25,329.56,255.69Z" transform="translate(-18 -21.5)"/><path class="cls-1" d="M532.57,297c-2.09-2-4.36-4-4.28-4.08,2-2.54,4.33-4.89,6.57-7.27,1.33,1.79,4.11,4.16,3.67,5.25C537.64,293.09,535,294.63,532.57,297Z" transform="translate(-18 -21.5)"/><path class="cls-1" d="M560.2,291.51a15.38,15.38,0,0,1-2-3.89c-.92-3.94,1.92-4.13,4.72-4.36s4.26.9,4.26,3.92C567.17,290.65,566.44,291.32,560.2,291.51Z" transform="translate(-18 -21.5)"/><path class="cls-1" d="M557.25,273l-6.18,8.66-4.8-9.38c.28-.44.56-.88.85-1.32Z" transform="translate(-18 -21.5)"/><path class="cls-1" d="M546.43,295.67c-1.53-3.45-3.36-6.58.46-8.51,1.44-.73,5.59.41,5.76,1.24C553.54,293,549.19,293.37,546.43,295.67Z" transform="translate(-18 -21.5)"/><path class="cls-1" d="M545.21,275.75c-2.16,1.56-3.58,3.33-5.13,3.46-1.18.1-3.78-2.48-3.6-2.84.9-1.88,2.48-3.42,3.83-5.08Z" transform="translate(-18 -21.5)"/><path class="cls-2" d="M566.69,143.39a7.54,7.54,0,0,1-7.27,7.37,7.1,7.1,0,0,1-7.51-7c-.1-4,3.46-8.09,7.18-8.22S566.65,139.37,566.69,143.39Z" transform="translate(-18 -21.5)"/><path class="cls-2" d="M342.15,147.05a7.38,7.38,0,0,1-7.2-7.33c-.05-4.18,3.37-7.83,7.33-7.83a7.58,7.58,0,0,1-.13,15.16Z" transform="translate(-18 -21.5)"/><path class="cls-2" d="M357.68,128.88l-28.31-2c2.54-3.43,6.66-4.84,10.95-5C347.12,121.56,353.19,123.61,357.68,128.88Z" transform="translate(-18 -21.5)"/></svg>